# xmcd
# 
# Track frame offsets:
#     150
#     15570
#     32793
#     57322
# 
# Disc length: 1154
# 
# Revision: 0
# Processed by: cddbd v1.5.2PL0 Copyright (c) Steve Scherf et al.
# Submitted via: fre:ac v1.0.17
# 
DISCID=2a048004
DTITLE=Isaac Delgado - La Vida Es Un Carnaval (Maxi CD)
DYEAR=0
DGENRE=
TTITLE0=La Vida Es Un Carnaval (Radio Edit)
TTITLE1=La Vida Es Un Carnaval (Ballhaus Edit)
TTITLE2=La Vida Es Un Carnaval (Poke Man Remix)
TTITLE3=La Vida Es Un Carnaval (Nerio's Dubwork Remix)
EXTD=
EXTT0=
EXTT1=
EXTT2=
EXTT3=
PLAYORDER=
